<svg width="21" height="21" viewBox="0 0 21 21" fill="none" xmlns="http://www.w3.org/2000/svg">
<path d="M19.6419 11.0988H19.2973V3.86165C19.2973 2.9886 18.9986 2.2534 18.4012 1.65605C17.8039 1.0587 17.0917 0.760027 16.2646 0.760027C15.4375 0.760027 14.7827 1.01275 14.3002 1.5182C13.8177 2.02365 13.5305 2.68992 13.4386 3.51702C13.0251 3.60892 12.692 3.8157 12.4392 4.13735C12.1865 4.459 12.0601 4.8266 12.0601 5.24014C12.0601 5.46989 12.175 5.58477 12.4048 5.58477H15.1618C15.3915 5.58477 15.5064 5.46989 15.5064 5.24014C15.5064 4.8266 15.38 4.459 15.1273 4.13735C14.8746 3.8157 14.5414 3.6319 14.1279 3.58595C14.1738 2.9886 14.3806 2.48315 14.7482 2.0696C15.1158 1.65605 15.6213 1.44928 16.2646 1.44928C16.9079 1.44928 17.4593 1.67903 17.9188 2.13853C18.3783 2.59802 18.608 3.1724 18.608 3.86165V11.0988H8.26928C8.17738 10.6852 7.9706 10.3521 7.64895 10.0993C7.3273 9.84662 6.9597 9.72026 6.54615 9.72026C6.17856 9.26076 5.71906 9.03101 5.16766 9.03101C4.84601 9.03101 4.54733 9.11142 4.27163 9.27225C3.99593 9.43307 3.78916 9.65134 3.65131 9.92704C3.32966 9.78919 3.03099 9.72026 2.75529 9.72026C2.34174 9.72026 1.97414 9.84662 1.65249 10.0993C1.33084 10.3521 1.12406 10.6852 1.03216 11.0988C0.756465 11.0988 0.515228 11.2021 0.308453 11.4089C0.101678 11.6157 -0.00170898 11.8569 -0.00170898 12.1326C-0.00170898 12.4083 0.101678 12.6496 0.308453 12.8563C0.515228 13.0631 0.756465 13.1665 1.03216 13.1665H1.44571L2.41066 16.8195C2.54851 17.3709 2.8357 17.8189 3.27222 18.1636C3.70875 18.5082 4.20271 18.6805 4.75411 18.6805H5.02981L4.54733 19.5765C4.50138 19.6684 4.4899 19.7603 4.51287 19.8522C4.53585 19.9441 4.5818 20.0016 4.65072 20.0245C4.71965 20.0475 4.80006 20.059 4.89196 20.059C4.98386 20.059 5.07576 19.9901 5.16766 19.8522L5.71906 18.6805H15.2996L15.9199 19.8522C15.9659 19.9901 16.0463 20.059 16.1612 20.059C16.2761 20.059 16.3565 20.036 16.4024 19.9901C16.4484 19.9441 16.4828 19.8752 16.5058 19.7833C16.5288 19.6914 16.5173 19.5995 16.4713 19.5076L16.0578 18.6805C16.5632 18.6805 17.0342 18.5082 17.4707 18.1636C17.9073 17.8189 18.1945 17.3939 18.3323 16.8884L19.2283 13.1665H19.6419C19.9176 13.1665 20.1588 13.0631 20.3656 12.8563C20.5724 12.6496 20.6758 12.4083 20.6758 12.1326C20.6758 11.8569 20.5724 11.6157 20.3656 11.4089C20.1588 11.2021 19.9176 11.0988 19.6419 11.0988ZM14.8171 4.89552H12.8183C12.8643 4.71172 12.9906 4.5509 13.1974 4.41305C13.4042 4.2752 13.611 4.20627 13.8177 4.20627C14.0245 4.20627 14.2198 4.26371 14.4036 4.37858C14.5874 4.49346 14.7252 4.66577 14.8171 4.89552ZM2.75529 10.4095C3.07694 10.4095 3.35264 10.5474 3.58238 10.8231C3.67428 10.915 3.78916 10.9379 3.92701 10.892C4.06486 10.846 4.13378 10.7541 4.13378 10.6163C4.22568 10.3406 4.36353 10.1223 4.54733 9.9615C4.73113 9.80067 4.93791 9.72026 5.16766 9.72026C5.62716 9.72026 5.94881 9.88109 6.13261 10.2027C6.13261 10.2946 6.16707 10.3521 6.23599 10.375C6.30492 10.398 6.38533 10.4095 6.47723 10.4095H6.61508C6.79888 10.4095 6.98268 10.4669 7.16648 10.5818C7.35028 10.6967 7.46515 10.869 7.5111 11.0988H1.79034C1.88224 10.869 2.0086 10.6967 2.16942 10.5818C2.33025 10.4669 2.52554 10.4095 2.75529 10.4095ZM17.712 16.6817C17.5741 17.0493 17.3559 17.3594 17.0572 17.6122C16.7585 17.8649 16.4024 17.9912 15.9889 17.9912H4.75411C4.34056 17.9912 3.98445 17.8649 3.68577 17.6122C3.3871 17.3594 3.19181 17.0493 3.09991 16.6817L2.20389 13.1665H18.5391L17.712 16.6817ZM19.6419 12.4773H18.9526H1.03216C0.802415 12.4773 0.68754 12.3624 0.68754 12.1326C0.68754 11.9029 0.802415 11.788 1.03216 11.788H19.6419C19.8716 11.788 19.9865 11.9029 19.9865 12.1326C19.9865 12.3624 19.8716 12.4773 19.6419 12.4773ZM12.4048 7.10112C12.6345 7.10112 12.7494 7.00922 12.7494 6.82542V6.61864C12.7494 6.38889 12.6345 6.27402 12.4048 6.27402C12.175 6.27402 12.0601 6.38889 12.0601 6.61864V6.75649C12.0601 6.98624 12.175 7.10112 12.4048 7.10112ZM12.4048 8.75531C12.4967 8.75531 12.5771 8.70936 12.646 8.61746C12.7149 8.52556 12.7494 8.45664 12.7494 8.41069V7.99714C12.7494 7.76739 12.6345 7.65251 12.4048 7.65251C12.175 7.65251 12.0601 7.76739 12.0601 7.99714V8.41069C12.0601 8.64044 12.175 8.75531 12.4048 8.75531ZM12.4048 10.0649C12.6345 10.0649 12.7494 9.95001 12.7494 9.72026V9.58241C12.7494 9.35266 12.6345 9.23779 12.4048 9.23779C12.175 9.23779 12.0601 9.35266 12.0601 9.58241V9.72026C12.0601 9.95001 12.175 10.0649 12.4048 10.0649ZM13.7833 7.10112C14.013 7.10112 14.1279 7.00922 14.1279 6.82542V6.61864C14.1279 6.38889 14.013 6.27402 13.7833 6.27402C13.5535 6.27402 13.4386 6.38889 13.4386 6.61864V6.75649C13.4386 6.98624 13.5535 7.10112 13.7833 7.10112ZM13.4386 8.34176C13.4386 8.57151 13.5535 8.68639 13.7833 8.68639C13.8752 8.68639 13.9556 8.65193 14.0245 8.583C14.0934 8.51408 14.1279 8.43366 14.1279 8.34176V7.99714C14.1279 7.76739 14.013 7.65251 13.7833 7.65251C13.5535 7.65251 13.4386 7.76739 13.4386 7.99714V8.34176ZM13.4386 9.72026C13.4386 9.95001 13.5535 10.0649 13.7833 10.0649C14.013 10.0649 14.1279 9.95001 14.1279 9.72026V9.51349C14.1279 9.28374 14.013 9.16886 13.7833 9.16886C13.5535 9.16886 13.4386 9.28374 13.4386 9.51349V9.72026ZM15.1618 7.10112C15.3915 7.10112 15.5064 7.00922 15.5064 6.82542V6.61864C15.5064 6.38889 15.3915 6.27402 15.1618 6.27402C14.932 6.27402 14.8171 6.38889 14.8171 6.61864V6.75649C14.8171 6.98624 14.932 7.10112 15.1618 7.10112ZM14.8171 8.34176C14.8171 8.57151 14.932 8.68639 15.1618 8.68639C15.2537 8.68639 15.3341 8.65193 15.403 8.583C15.4719 8.51408 15.5064 8.43366 15.5064 8.34176V7.99714C15.5064 7.76739 15.3915 7.65251 15.1618 7.65251C14.932 7.65251 14.8171 7.76739 14.8171 7.99714V8.34176ZM14.8171 9.72026C14.8171 9.95001 14.932 10.0649 15.1618 10.0649C15.3915 10.0649 15.5064 9.95001 15.5064 9.72026V9.51349C15.5064 9.28374 15.3915 9.16886 15.1618 9.16886C14.932 9.16886 14.8171 9.28374 14.8171 9.51349V9.72026Z" fill="#696969"/>
</svg>
