<svg width="216" height="48" viewBox="0 0 216 48" fill="none" xmlns="http://www.w3.org/2000/svg">
<ellipse cx="23.6066" cy="23.6065" rx="23.6066" ry="23.6065" fill="#4BA586"/>
<path d="M69.3183 22.9935C70.3758 23.1824 71.2729 23.7395 72.0094 24.6649C72.7459 25.5902 73.1142 26.6384 73.1142 27.8093C73.1142 28.8102 72.8498 29.7167 72.321 30.5287C71.8111 31.3219 71.0652 31.9546 70.0831 32.4267C69.1011 32.8799 67.9585 33.1066 66.6555 33.1066H58.7803V13.4187H66.2872C67.628 13.4187 68.78 13.6453 69.7432 14.0986C70.7063 14.5518 71.4334 15.1656 71.9244 15.9399C72.4155 16.6953 72.661 17.5451 72.661 18.4894C72.661 19.6225 72.3588 20.5668 71.7545 21.3222C71.1501 22.0776 70.3381 22.6347 69.3183 22.9935ZM62.0097 21.6904H66.0039C67.0615 21.6904 67.883 21.4544 68.4684 20.9823C69.0728 20.4912 69.3749 19.7925 69.3749 18.886C69.3749 17.9984 69.0728 17.3091 68.4684 16.8181C67.883 16.3082 67.0615 16.0532 66.0039 16.0532H62.0097V21.6904ZM66.3722 30.4721C67.4675 30.4721 68.3268 30.2077 68.95 29.6789C69.5732 29.1501 69.8848 28.4136 69.8848 27.4693C69.8848 26.5062 69.5543 25.7413 68.8934 25.1748C68.2324 24.6082 67.3542 24.3249 66.2589 24.3249H62.0097V30.4721H66.3722ZM91.5193 24.9198C91.5193 25.5053 91.4815 26.034 91.406 26.5062H79.4799C79.5744 27.7526 80.037 28.7535 80.868 29.5089C81.6989 30.2643 82.7187 30.642 83.9274 30.642C85.6648 30.642 86.8924 29.915 87.61 28.4608H91.0943C90.6222 29.8961 89.7629 31.0764 88.5165 32.0018C87.289 32.9083 85.7593 33.3615 83.9274 33.3615C82.4355 33.3615 81.0946 33.031 79.9048 32.37C78.734 31.6902 77.8086 30.7459 77.1287 29.5373C76.4677 28.3097 76.1372 26.8933 76.1372 25.2881C76.1372 23.6828 76.4583 22.2759 77.1004 21.0672C77.7614 19.8397 78.6773 18.8954 79.8482 18.2345C81.038 17.5735 82.3977 17.243 83.9274 17.243C85.4004 17.243 86.713 17.564 87.865 18.2061C89.017 18.8482 89.914 19.7547 90.5561 20.9256C91.1982 22.0776 91.5193 23.409 91.5193 24.9198ZM88.1482 23.9C88.1294 22.7103 87.7044 21.7565 86.8735 21.0389C86.0425 20.3213 85.0133 19.9624 83.7858 19.9624C82.6715 19.9624 81.7178 20.3213 80.9247 21.0389C80.1315 21.7377 79.6593 22.6914 79.5083 23.9H88.1482ZM99.0551 20.1324V28.7724C99.0551 29.3578 99.1873 29.7828 99.4516 30.0472C99.7349 30.2927 100.207 30.4154 100.868 30.4154H102.851V33.1066H100.301C98.8473 33.1066 97.7331 32.7666 96.9588 32.0868C96.1845 31.4069 95.7974 30.3021 95.7974 28.7724V20.1324H93.956V17.4979H95.7974V13.617H99.0551V17.4979H102.851V20.1324H99.0551ZM105.341 25.2314C105.341 23.664 105.662 22.2759 106.304 21.0672C106.965 19.8586 107.853 18.9238 108.967 18.2628C110.1 17.5829 111.347 17.243 112.706 17.243C113.934 17.243 115.001 17.4885 115.907 17.9795C116.833 18.4516 117.569 19.0465 118.117 19.7642V17.4979H121.375V33.1066H118.117V30.7837C117.569 31.5202 116.823 32.134 115.879 32.625C114.935 33.116 113.858 33.3615 112.65 33.3615C111.309 33.3615 110.081 33.0216 108.967 32.3417C107.853 31.643 106.965 30.6798 106.304 29.4523C105.662 28.2059 105.341 26.7989 105.341 25.2314ZM118.117 25.2881C118.117 24.2116 117.89 23.2768 117.437 22.4836C117.003 21.6904 116.427 21.0861 115.709 20.6706C114.991 20.2552 114.217 20.0474 113.386 20.0474C112.555 20.0474 111.781 20.2552 111.063 20.6706C110.346 21.0672 109.76 21.6621 109.307 22.4553C108.873 23.2296 108.655 24.155 108.655 25.2314C108.655 26.3079 108.873 27.2521 109.307 28.0642C109.76 28.8763 110.346 29.4995 111.063 29.9338C111.8 30.3493 112.574 30.5571 113.386 30.5571C114.217 30.5571 114.991 30.3493 115.709 29.9338C116.427 29.5184 117.003 28.914 117.437 28.1209C117.89 27.3088 118.117 26.3645 118.117 25.2881ZM141.928 13.4187V33.1066H138.699V24.4949H129.436V33.1066H126.206V13.4187H129.436V21.8604H138.699V13.4187H141.928ZM153.54 33.3615C152.067 33.3615 150.736 33.031 149.546 32.37C148.356 31.6902 147.422 30.7459 146.742 29.5373C146.062 28.3097 145.722 26.8933 145.722 25.2881C145.722 23.7017 146.071 22.2948 146.77 21.0672C147.469 19.8397 148.422 18.8954 149.631 18.2345C150.84 17.5735 152.19 17.243 153.682 17.243C155.174 17.243 156.524 17.5735 157.733 18.2345C158.942 18.8954 159.895 19.8397 160.594 21.0672C161.293 22.2948 161.642 23.7017 161.642 25.2881C161.642 26.8744 161.283 28.2814 160.566 29.5089C159.848 30.7365 158.866 31.6902 157.62 32.37C156.392 33.031 155.032 33.3615 153.54 33.3615ZM153.54 30.5571C154.371 30.5571 155.146 30.3588 155.863 29.9622C156.6 29.5656 157.195 28.9707 157.648 28.1775C158.101 27.3843 158.328 26.4212 158.328 25.2881C158.328 24.155 158.111 23.2013 157.676 22.427C157.242 21.6338 156.666 21.0389 155.948 20.6423C155.231 20.2457 154.456 20.0474 153.625 20.0474C152.794 20.0474 152.02 20.2457 151.302 20.6423C150.604 21.0389 150.047 21.6338 149.631 22.427C149.216 23.2013 149.008 24.155 149.008 25.2881C149.008 26.9689 149.433 28.2719 150.283 29.1973C151.151 30.1038 152.237 30.5571 153.54 30.5571ZM179.56 17.4979V33.1066H176.331V31.2653C175.821 31.9074 175.151 32.4173 174.32 32.795C173.508 33.1538 172.639 33.3332 171.713 33.3332C170.486 33.3332 169.381 33.0782 168.399 32.5683C167.436 32.0584 166.671 31.303 166.105 30.3021C165.557 29.3012 165.283 28.0925 165.283 26.6761V17.4979H168.484V26.1946C168.484 27.5921 168.833 28.6685 169.532 29.4239C170.231 30.1605 171.185 30.5287 172.393 30.5287C173.602 30.5287 174.556 30.1605 175.254 29.4239C175.972 28.6685 176.331 27.5921 176.331 26.1946V17.4979H179.56ZM190.077 33.3615C188.849 33.3615 187.745 33.1443 186.763 32.71C185.799 32.2567 185.035 31.6524 184.468 30.897C183.901 30.1227 183.599 29.2634 183.561 28.3192H186.904C186.961 28.9801 187.272 29.5373 187.839 29.9905C188.424 30.4249 189.152 30.642 190.02 30.642C190.927 30.642 191.625 30.4721 192.117 30.1321C192.626 29.7733 192.881 29.3201 192.881 28.7724C192.881 28.187 192.598 27.7526 192.032 27.4693C191.484 27.186 190.606 26.8744 189.397 26.5345C188.226 26.2135 187.272 25.9019 186.536 25.5997C185.799 25.2975 185.157 24.8348 184.61 24.2116C184.081 23.5884 183.816 22.7669 183.816 21.7471C183.816 20.9162 184.062 20.1607 184.553 19.4809C185.044 18.7821 185.743 18.2345 186.649 17.8379C187.575 17.4413 188.632 17.243 189.822 17.243C191.597 17.243 193.023 17.6962 194.099 18.6027C195.195 19.4903 195.78 20.7084 195.856 22.257H192.626C192.57 21.5583 192.286 21.0011 191.777 20.5857C191.267 20.1702 190.577 19.9624 189.709 19.9624C188.859 19.9624 188.207 20.123 187.754 20.444C187.301 20.7651 187.074 21.19 187.074 21.7188C187.074 22.1343 187.225 22.4836 187.527 22.7669C187.83 23.0502 188.198 23.2768 188.632 23.4468C189.067 23.5979 189.709 23.7962 190.558 24.0417C191.692 24.3438 192.617 24.6554 193.335 24.9765C194.071 25.2786 194.704 25.7319 195.233 26.3362C195.761 26.9405 196.035 27.7432 196.054 28.7441C196.054 29.6317 195.809 30.4249 195.318 31.1236C194.827 31.8224 194.128 32.37 193.221 32.7666C192.334 33.1632 191.286 33.3615 190.077 33.3615ZM214.439 24.9198C214.439 25.5053 214.401 26.034 214.326 26.5062H202.4C202.494 27.7526 202.957 28.7535 203.788 29.5089C204.619 30.2643 205.639 30.642 206.847 30.642C208.585 30.642 209.812 29.915 210.53 28.4608H214.014C213.542 29.8961 212.683 31.0764 211.436 32.0018C210.209 32.9083 208.679 33.3615 206.847 33.3615C205.355 33.3615 204.015 33.031 202.825 32.37C201.654 31.6902 200.729 30.7459 200.049 29.5373C199.388 28.3097 199.057 26.8933 199.057 25.2881C199.057 23.6828 199.378 22.2759 200.02 21.0672C200.681 19.8397 201.597 18.8954 202.768 18.2345C203.958 17.5735 205.318 17.243 206.847 17.243C208.32 17.243 209.633 17.564 210.785 18.2061C211.937 18.8482 212.834 19.7547 213.476 20.9256C214.118 22.0776 214.439 23.409 214.439 24.9198ZM211.068 23.9C211.049 22.7103 210.624 21.7565 209.793 21.0389C208.962 20.3213 207.933 19.9624 206.706 19.9624C205.591 19.9624 204.638 20.3213 203.845 21.0389C203.051 21.7377 202.579 22.6914 202.428 23.9H211.068Z" fill="white"/>
</svg>
