<svg width="32" height="18" viewBox="0 0 32 18" fill="none" xmlns="http://www.w3.org/2000/svg">
<path d="M10.5784 9.04263C11.5384 9.24722 12.3095 9.72722 12.8918 10.4826C13.4741 11.2223 13.7652 12.0721 13.7652 13.0321C13.7652 14.4171 13.2774 15.5187 12.3016 16.3371C11.3416 17.1397 9.99606 17.541 8.26491 17.541H0.545575V0.9692H8.00524C9.68917 0.9692 11.0033 1.35477 11.9475 2.12592C12.9075 2.89707 13.3875 3.94362 13.3875 5.26559C13.3875 6.24132 13.1279 7.05182 12.6085 7.69706C12.1049 8.34231 11.4282 8.79083 10.5784 9.04263ZM4.58229 7.67345H7.22622C7.88721 7.67345 8.39081 7.53182 8.73704 7.24854C9.09901 6.94952 9.27999 6.51673 9.27999 5.95018C9.27999 5.38362 9.09901 4.95083 8.73704 4.65182C8.39081 4.3528 7.88721 4.2033 7.22622 4.2033H4.58229V7.67345ZM7.55672 14.2833C8.23344 14.2833 8.75278 14.1338 9.11475 13.8348C9.49245 13.52 9.6813 13.0715 9.6813 12.4892C9.6813 11.9069 9.48458 11.4505 9.09114 11.12C8.71344 10.7895 8.18622 10.6243 7.5095 10.6243H4.58229V14.2833H7.55672ZM31.0495 0.9692V17.541H27.0127V10.7187H20.7334V17.541H16.6967V0.9692H20.7334V7.461H27.0127V0.9692H31.0495Z" fill="#FEFEFF"/>
</svg>
