<svg width="22" height="23" viewBox="0 0 22 23" fill="none" xmlns="http://www.w3.org/2000/svg">
<path d="M21.7861 9.59556H20.9V9.54991H11V13.9499H17.2167C16.3097 16.5113 13.8727 18.3499 11 18.3499C7.35515 18.3499 4.4 15.3948 4.4 11.7499C4.4 8.10506 7.35515 5.14991 11 5.14991C12.6825 5.14991 14.2131 5.78461 15.3786 6.82136L18.4899 3.71001C16.5253 1.87906 13.8974 0.749908 11 0.749908C4.92525 0.749908 0 5.67516 0 11.7499C0 17.8247 4.92525 22.7499 11 22.7499C17.0748 22.7499 22 17.8247 22 11.7499C22 11.0124 21.9241 10.2924 21.7861 9.59556Z" fill="#FFC107"/>
<path d="M1.26801 6.62996L4.88205 9.28041C5.85995 6.85931 8.22825 5.14991 10.9997 5.14991C12.6822 5.14991 14.2128 5.78461 15.3783 6.82136L18.4896 3.71001C16.525 1.87906 13.8971 0.749908 10.9997 0.749908C6.7746 0.749908 3.11051 3.13526 1.26801 6.62996Z" fill="#FF3D00"/>
<path d="M11 22.7499C13.8413 22.7499 16.423 21.6626 18.375 19.8943L14.9705 17.0134C13.8661 17.85 12.4933 18.3499 11 18.3499C8.13893 18.3499 5.70957 16.5256 4.79437 13.9796L1.20728 16.7434C3.02778 20.3057 6.72487 22.7499 11 22.7499Z" fill="#4CAF50"/>
<path d="M21.786 9.59555H20.9V9.5499H11V13.9499H17.2167C16.7811 15.1802 15.9896 16.2412 14.9688 17.0139C14.9693 17.0134 14.9699 17.0134 14.9704 17.0128L18.375 19.8937C18.1341 20.1126 22 17.2499 22 11.7499C22 11.0123 21.9241 10.2924 21.786 9.59555Z" fill="#1976D2"/>
</svg>
