<svg width="19" height="18" viewBox="0 0 19 18" fill="none" xmlns="http://www.w3.org/2000/svg">
<g clip-path="url(#clip0_3483_70)">
<path d="M5.69756 4.35009C5.69756 4.35009 5.78731 4.43984 5.9668 4.61933C6.14629 4.79882 6.23604 5.14498 6.23604 5.65782C6.23604 6.17065 6.05655 6.60656 5.69756 6.96554C5.33858 7.32453 4.90267 7.50402 4.38984 7.50402C3.877 7.50402 3.44109 7.32453 3.08211 6.96554C2.72313 6.60656 2.54363 6.17065 2.54363 5.65782C2.54363 5.14498 2.72313 4.70908 3.08211 4.35009C3.44109 3.99111 3.877 3.81162 4.38984 3.81162C4.90267 3.81162 5.33858 3.99111 5.69756 4.35009ZM16.0824 9.35022V13.658H2.54363V11.8118L5.62064 8.73482L7.15914 10.2733L12.0823 5.35012L16.0824 9.35022ZM17.0055 2.58082H1.62053C1.5372 2.58082 1.46508 2.61127 1.40418 2.67216C1.34328 2.73306 1.31283 2.80518 1.31283 2.88852V14.5811C1.31283 14.6645 1.34328 14.7366 1.40418 14.7975C1.46508 14.8584 1.5372 14.8888 1.62053 14.8888H17.0055C17.0889 14.8888 17.161 14.8584 17.2219 14.7975C17.2828 14.7366 17.3132 14.6645 17.3132 14.5811V2.88852C17.3132 2.80518 17.2828 2.73306 17.2219 2.67216C17.161 2.61127 17.0889 2.58082 17.0055 2.58082ZM18.5441 2.88852V14.5811C18.5441 15.0042 18.3934 15.3664 18.0921 15.6677C17.7908 15.969 17.4286 16.1196 17.0055 16.1196H1.62053C1.19744 16.1196 0.835256 15.969 0.533966 15.6677C0.232676 15.3664 0.0820312 15.0042 0.0820312 14.5811V2.88852C0.0820312 2.46543 0.232676 2.10324 0.533966 1.80195C0.835256 1.50066 1.19744 1.35001 1.62053 1.35001H17.0055C17.4286 1.35001 17.7908 1.50066 18.0921 1.80195C18.3934 2.10324 18.5441 2.46543 18.5441 2.88852Z" fill="white"/>
</g>
<defs>
<clipPath id="clip0_3483_70">
<rect width="18.4719" height="17.2312" fill="white" transform="matrix(1 0 0 -1 0.078125 17.3503)"/>
</clipPath>
</defs>
</svg>
