<svg width="11" height="16" viewBox="0 0 11 16" fill="none" xmlns="http://www.w3.org/2000/svg">
<path d="M7.56085 7.58479C7.56085 7.58479 7.68105 7.46459 7.92144 7.2242C8.16183 6.98381 8.28202 6.52386 8.28202 5.84436C8.28202 5.16485 8.04163 4.58471 7.56085 4.10393C7.08007 3.62314 6.49993 3.38275 5.82042 3.38275C5.14092 3.38275 4.56077 3.62314 4.07999 4.10393C3.59921 4.58471 3.35882 5.16485 3.35882 5.84436C3.35882 6.52386 3.59921 7.104 4.07999 7.58479C4.56077 8.06557 5.14092 8.30596 5.82042 8.30596C6.49993 8.30596 7.08007 8.06557 7.56085 7.58479ZM10.7436 5.84436C10.7436 6.54309 10.6379 7.11682 10.4263 7.56555L6.92622 15.0081C6.82365 15.2196 6.67141 15.3863 6.46948 15.5081C6.26755 15.6299 6.0512 15.6908 5.82042 15.6908C5.58965 15.6908 5.37329 15.6299 5.17137 15.5081C4.96944 15.3863 4.8204 15.2196 4.72424 15.0081L1.21453 7.56555C1.00299 7.11682 0.897217 6.54309 0.897217 5.84436C0.897217 4.48535 1.378 3.32506 2.33956 2.3635C3.30113 1.40193 4.46141 0.92115 5.82042 0.92115C7.17943 0.92115 8.33972 1.40193 9.30128 2.3635C10.2628 3.32506 10.7436 4.48535 10.7436 5.84436Z" fill="#ffffff"/>
</svg>
