<svg width="19" height="18" viewBox="0 0 19 18" fill="none" xmlns="http://www.w3.org/2000/svg">
<g clip-path="url(#clip0_3483_67)">
<path d="M18.0144 3.50394V13.9658C18.0144 14.235 17.8894 14.4241 17.6394 14.5331C17.5561 14.5651 17.4759 14.5812 17.399 14.5812C17.2259 14.5812 17.0817 14.5203 16.9663 14.3985L13.0912 10.5234V12.1196C13.0912 12.8824 12.8204 13.5347 12.2787 14.0763C11.737 14.618 11.0848 14.8889 10.3219 14.8889H3.55251C2.78967 14.8889 2.1374 14.618 1.59572 14.0763C1.05404 13.5347 0.783203 12.8824 0.783203 12.1196V5.35015C0.783203 4.58731 1.05404 3.93505 1.59572 3.39336C2.1374 2.85168 2.78967 2.58084 3.55251 2.58084H10.3219C11.0848 2.58084 11.737 2.85168 12.2787 3.39336C12.8204 3.93505 13.0912 4.58731 13.0912 5.35015V6.93673L16.9663 3.07124C17.0817 2.94944 17.2259 2.88854 17.399 2.88854C17.4759 2.88854 17.5561 2.90457 17.6394 2.93662C17.8894 3.0456 18.0144 3.23471 18.0144 3.50394Z" fill="white"/>
</g>
<defs>
<clipPath id="clip0_3483_67">
<rect width="17.2542" height="17.2312" fill="white" transform="matrix(1 0 0 -1 0.771484 17.3503)"/>
</clipPath>
</defs>
</svg>
